# xmcd
#
# Track frame offsets:
# 150
# 6622
# 22739
# 43051
# 59581
# 79920
# 100233
# 120580
# 135063
# 154054
# 172374
# 191922
# 197448
# 213927
# 233029
# 250743
# 273223
# 290274
# 308889
# 324219
#
# Disc length: 4591 seconds
#
# Revision: 0
# Processed by: cddbd v1.4b42PL0 Copyright (c) Steve Scherf et al.
# Submitted via: Audion 2.5.0 (http://www.panic.com/audion/)
#
DISCID=1111ed14
DTITLE=sun yan zi - my desired happiness
DYEAR=1900
DGENRE=
TTITLE0=on the road
TTITLE1=my desired happiness
TTITLE2=bad weather
TTITLE3=perfect
TTITLE4=realize
TTITLE5=central zone
TTITLE6=believe
TTITLE7=drag
TTITLE8=only chance
TTITLE9=gear
TTITLE10=leaving you on the sunny monday
TTITLE11=on the road (demo02)
TTITLE12=turbo
TTITLE13=love document
TTITLE14=cloudy day
TTITLE15=E-love
TTITLE16=scrlpted eyebrow
TTITLE17=make peace
TTITLE18=natural
TTITLE19=finally
EXTD=
EXTT0=
EXTT1=
EXTT2=
EXTT3=
EXTT4=
EXTT5=
EXTT6=
EXTT7=
EXTT8=
EXTT9=
EXTT10=
EXTT11=
EXTT12=
EXTT13=
EXTT14=
EXTT15=
EXTT16=
EXTT17=
EXTT18=
EXTT19=
PLAYORDER=
